<mxfile host="app.diagrams.net" modified="2023-08-29T11:25:00.965Z" agent="Mozilla/5.0 (Windows NT 10.0; Win64; x64) AppleWebKit/537.36 (KHTML, like Gecko) Chrome/116.0.0.0 Safari/537.36" etag="9z2Rmj2ESsC6y6jHvxQ5" version="21.6.9" type="device">
  <diagram name="Página-1" id="v58Ilv38TYv7gPkG5N6R">
    <mxGraphModel dx="1050" dy="542" grid="1" gridSize="10" guides="1" tooltips="1" connect="1" arrows="1" fold="1" page="1" pageScale="1" pageWidth="827" pageHeight="1169" math="0" shadow="0">
      <root>
        <mxCell id="0" />
        <mxCell id="1" parent="0" />
        <mxCell id="Nt_sEuGe0SiUC8IYw2C--1" value="Classe Morcego" style="swimlane;fontStyle=0;childLayout=stackLayout;horizontal=1;startSize=26;fillColor=none;horizontalStack=0;resizeParent=1;resizeParentMax=0;resizeLast=0;collapsible=1;marginBottom=0;whiteSpace=wrap;html=1;" vertex="1" parent="1">
          <mxGeometry x="330" y="110" width="140" height="190" as="geometry" />
        </mxCell>
        <mxCell id="Nt_sEuGe0SiUC8IYw2C--2" value="+ tamanho:decimal" style="text;strokeColor=none;fillColor=none;align=left;verticalAlign=top;spacingLeft=4;spacingRight=4;overflow=hidden;rotatable=0;points=[[0,0.5],[1,0.5]];portConstraint=eastwest;whiteSpace=wrap;html=1;" vertex="1" parent="Nt_sEuGe0SiUC8IYw2C--1">
          <mxGeometry y="26" width="140" height="26" as="geometry" />
        </mxCell>
        <mxCell id="Nt_sEuGe0SiUC8IYw2C--3" value="+ alimento: string&lt;br&gt;+ peso: decimal&lt;br style=&quot;border-color: var(--border-color);&quot;&gt;+cor: string" style="text;strokeColor=none;fillColor=none;align=left;verticalAlign=top;spacingLeft=4;spacingRight=4;overflow=hidden;rotatable=0;points=[[0,0.5],[1,0.5]];portConstraint=eastwest;whiteSpace=wrap;html=1;" vertex="1" parent="Nt_sEuGe0SiUC8IYw2C--1">
          <mxGeometry y="52" width="140" height="138" as="geometry" />
        </mxCell>
        <mxCell id="Nt_sEuGe0SiUC8IYw2C--4" value="+voar&lt;br&gt;+comer&lt;br&gt;+ecolocalizar&lt;br&gt;+caçar" style="text;strokeColor=none;fillColor=none;align=left;verticalAlign=top;spacingLeft=4;spacingRight=4;overflow=hidden;rotatable=0;points=[[0,0.5],[1,0.5]];portConstraint=eastwest;whiteSpace=wrap;html=1;" vertex="1" parent="1">
          <mxGeometry x="330" y="220" width="140" height="80" as="geometry" />
        </mxCell>
        <mxCell id="Nt_sEuGe0SiUC8IYw2C--9" value="" style="endArrow=none;html=1;rounded=0;" edge="1" parent="1">
          <mxGeometry width="50" height="50" relative="1" as="geometry">
            <mxPoint x="470" y="220" as="sourcePoint" />
            <mxPoint x="329" y="220" as="targetPoint" />
          </mxGeometry>
        </mxCell>
      </root>
    </mxGraphModel>
  </diagram>
</mxfile>
